# xmcd
# 
# Track frame offsets:
#     150
#     22590
#     40300
#     63557
#     85777
#     102332
#     122297
#     142670
#     161877
#     182135
#     202395
#     225157
#     247817
#     267627
#     288542
# 
# Disc length: 4172
# 
# Revision: 2
# Processed by: cddbd v1.5.2PL0 Copyright (c) Steve Scherf et al.
# Submitted via: fre:ac v1.0.17
# 
DISCID=c9104a0f
DTITLE=世良公則 - 世良公則 15HITS
DYEAR=1988
DGENRE=J-Rock
TTITLE0=Heart is Gold
TTITLE1=Darlin’
TTITLE2=男たちの国境
TTITLE3=We are Rock'n Roll Band
TTITLE4=Tough in the City
TTITLE5=Tokyo Scratch City
TTITLE6=Rock’n Roll Rescue
TTITLE7=When a man loves a woman
TTITLE8=ストーンズが聞こえた街
TTITLE9=Boy
TTITLE10=10カウントにはまだ遠い
TTITLE11=10Years After
TTITLE12=Dont’ stop your mind
TTITLE13=Knockin’ My Heart
TTITLE14=バラードが聴こえる
EXTD=
EXTT0=
EXTT1=
EXTT2=
EXTT3=
EXTT4=
EXTT5=
EXTT6=
EXTT7=
EXTT8=
EXTT9=
EXTT10=
EXTT11=
EXTT12=
EXTT13=
EXTT14=
PLAYORDER=
